<svg width="860" height="560" viewBox="0 0 860 560" fill="none" xmlns="http://www.w3.org/2000/svg">
  <rect width="860" height="560" rx="20" fill="#F3F8FE"/>
  <rect x="36" y="36" width="788" height="488" rx="16" fill="#FFFFFF" stroke="#CFE1FA" stroke-width="2"/>
  <text x="70" y="88" fill="#1A3F76" font-size="26" font-family="Arial, sans-serif" font-weight="700">2. Configure Translation Controls</text>
  <rect x="70" y="118" width="718" height="3" fill="#D9E7FA"/>
  <rect x="70" y="154" width="346" height="320" rx="14" fill="#F8FBFF" stroke="#D3E3F9"/>
  <text x="98" y="192" fill="#23446A" font-size="20" font-family="Arial, sans-serif" font-weight="700">Glossary</text>
  <rect x="98" y="210" width="292" height="42" rx="10" fill="#EAF3FF"/>
  <text x="114" y="237" fill="#214A88" font-size="18" font-family="Arial, sans-serif">Approved Product Terms</text>
  <rect x="98" y="266" width="292" height="42" rx="10" fill="#EAF3FF"/>
  <text x="114" y="293" fill="#214A88" font-size="18" font-family="Arial, sans-serif">Legal Phrase Locking</text>
  <text x="98" y="344" fill="#23446A" font-size="20" font-family="Arial, sans-serif" font-weight="700">OCR Rules</text>
  <rect x="98" y="362" width="292" height="42" rx="10" fill="#EAF3FF"/>
  <text x="114" y="389" fill="#214A88" font-size="18" font-family="Arial, sans-serif">Extract image annotations</text>
  <rect x="444" y="154" width="344" height="320" rx="14" fill="#F8FBFF" stroke="#D3E3F9"/>
  <text x="472" y="192" fill="#23446A" font-size="20" font-family="Arial, sans-serif" font-weight="700">Permissions</text>
  <rect x="472" y="210" width="288" height="54" rx="12" fill="#EAF3FF"/>
  <text x="490" y="238" fill="#214A88" font-size="18" font-family="Arial, sans-serif">Ops Team: Edit + Approve</text>
  <rect x="472" y="278" width="288" height="54" rx="12" fill="#EAF3FF"/>
  <text x="490" y="306" fill="#214A88" font-size="18" font-family="Arial, sans-serif">Engineering: Review only</text>
  <rect x="472" y="346" width="288" height="54" rx="12" fill="#EAF3FF"/>
  <text x="490" y="374" fill="#214A88" font-size="18" font-family="Arial, sans-serif">Audit trail: Enabled</text>
</svg>
